<?xml version="1.0" standalone="no"?>
<svg viewBox="0 0 200 200" xmlns="http://www.w3.org/2000/svg">
  <path fill="#FFD6E8" d="M38.2,-65.4C51.4,-58.6,65.3,-52.1,73,-41.3C80.6,-30.5,82.1,-15.2,81,-0.6C79.9,14,76.3,28,69.4,40.2C62.6,52.4,52.4,62.8,40.3,72.2C28.2,81.5,14.1,89.7,-1.1,91.6C-16.3,93.5,-32.6,89.1,-44,79.4C-55.5,69.7,-62.1,54.7,-67.4,40.6C-72.7,26.4,-76.7,13.2,-76.9,-0.1C-77.2,-13.5,-73.6,-27,-67.2,-39.1C-60.7,-51.1,-51.2,-61.8,-39.6,-69.5C-27.9,-77.2,-13.9,-81.9,-0.7,-80.7C12.5,-79.4,25,-72.2,38.2,-65.4Z" transform="translate(100 100)" />
</svg>
